<svg width="129" height="192" viewBox="0 0 129 192" fill="none" xmlns="http://www.w3.org/2000/svg">
<circle cx="96" cy="96" r="93.5" stroke="#102044" stroke-width="5"/>
<mask id="path-2-outside-1_214_1109" maskUnits="userSpaceOnUse" x="86" y="76" width="34" height="38" fill="black">
<rect fill="white" x="86" y="76" width="34" height="38"/>
<path d="M103.432 112.576C100.072 112.576 97.176 111.856 94.744 110.416C92.312 108.944 90.44 106.912 89.128 104.32C87.816 101.696 87.16 98.672 87.16 95.248C87.16 91.824 87.816 88.8 89.128 86.176C90.44 83.552 92.312 81.504 94.744 80.032C97.176 78.56 100.072 77.824 103.432 77.824C107.496 77.824 110.84 78.848 113.464 80.896C116.088 82.944 117.72 85.824 118.36 89.536H110.968C110.584 87.744 109.736 86.368 108.424 85.408C107.144 84.416 105.448 83.92 103.336 83.92C101.384 83.92 99.704 84.384 98.296 85.312C96.92 86.208 95.864 87.504 95.128 89.2C94.392 90.896 94.024 92.912 94.024 95.248C94.024 97.584 94.392 99.6 95.128 101.296C95.864 102.96 96.92 104.256 98.296 105.184C99.704 106.08 101.384 106.528 103.336 106.528C105.448 106.528 107.144 106.08 108.424 105.184C109.704 104.256 110.552 102.976 110.968 101.344H118.36C117.72 104.832 116.088 107.584 113.464 109.6C110.84 111.584 107.496 112.576 103.432 112.576Z"/>
</mask>
<path d="M103.432 112.576C100.072 112.576 97.176 111.856 94.744 110.416C92.312 108.944 90.44 106.912 89.128 104.32C87.816 101.696 87.16 98.672 87.16 95.248C87.16 91.824 87.816 88.8 89.128 86.176C90.44 83.552 92.312 81.504 94.744 80.032C97.176 78.56 100.072 77.824 103.432 77.824C107.496 77.824 110.84 78.848 113.464 80.896C116.088 82.944 117.72 85.824 118.36 89.536H110.968C110.584 87.744 109.736 86.368 108.424 85.408C107.144 84.416 105.448 83.92 103.336 83.92C101.384 83.92 99.704 84.384 98.296 85.312C96.92 86.208 95.864 87.504 95.128 89.2C94.392 90.896 94.024 92.912 94.024 95.248C94.024 97.584 94.392 99.6 95.128 101.296C95.864 102.96 96.92 104.256 98.296 105.184C99.704 106.08 101.384 106.528 103.336 106.528C105.448 106.528 107.144 106.08 108.424 105.184C109.704 104.256 110.552 102.976 110.968 101.344H118.36C117.72 104.832 116.088 107.584 113.464 109.6C110.84 111.584 107.496 112.576 103.432 112.576Z" fill="#102044"/>
<path d="M94.744 110.416L94.2262 111.272L94.2345 111.276L94.744 110.416ZM89.128 104.32L88.2336 104.767L88.2358 104.772L89.128 104.32ZM89.128 86.176L88.2336 85.7288V85.7288L89.128 86.176ZM113.464 80.896L112.849 81.6843L113.464 80.896ZM118.36 89.536V90.536H119.547L119.345 89.3661L118.36 89.536ZM110.968 89.536L109.99 89.7455L110.16 90.536H110.968V89.536ZM108.424 85.408L107.811 86.1984L107.822 86.2069L107.833 86.215L108.424 85.408ZM98.296 85.312L98.8417 86.15L98.8463 86.147L98.296 85.312ZM95.128 89.2L94.2107 88.8019V88.8019L95.128 89.2ZM95.128 101.296L94.2106 101.694L94.2135 101.701L95.128 101.296ZM98.296 105.184L97.7369 106.013L97.7479 106.021L97.7591 106.028L98.296 105.184ZM108.424 105.184L108.997 106.003L109.004 105.998L109.011 105.994L108.424 105.184ZM110.968 101.344V100.344H110.191L109.999 101.097L110.968 101.344ZM118.36 101.344L119.344 101.524L119.56 100.344H118.36V101.344ZM113.464 109.6L114.067 110.398L114.073 110.393L113.464 109.6ZM103.432 112.576V111.576C100.217 111.576 97.5044 110.888 95.2535 109.556L94.744 110.416L94.2345 111.276C96.8476 112.824 99.9268 113.576 103.432 113.576V112.576ZM94.744 110.416L95.2618 109.561C92.9936 108.188 91.2496 106.297 90.0202 103.868L89.128 104.32L88.2358 104.772C89.6304 107.527 91.6304 109.7 94.2262 111.271L94.744 110.416ZM89.128 104.32L90.0224 103.873C88.7906 101.409 88.16 98.5427 88.16 95.248H87.16H86.16C86.16 98.8013 86.8414 101.983 88.2336 104.767L89.128 104.32ZM87.16 95.248H88.16C88.16 91.9533 88.7906 89.0869 90.0224 86.6232L89.128 86.176L88.2336 85.7288C86.8414 88.5131 86.16 91.6947 86.16 95.248H87.16ZM89.128 86.176L90.0224 86.6232C91.2528 84.1624 92.9967 82.2585 95.2618 80.8875L94.744 80.032L94.2262 79.1765C91.6273 80.7495 89.6272 82.9415 88.2336 85.7288L89.128 86.176ZM94.744 80.032L95.2618 80.8875C97.5112 79.526 100.221 78.824 103.432 78.824V77.824V76.824C99.923 76.824 96.8408 77.594 94.2262 79.1765L94.744 80.032ZM103.432 77.824V78.824C107.324 78.824 110.437 79.8017 112.849 81.6843L113.464 80.896L114.079 80.1077C111.243 77.8943 107.668 76.824 103.432 76.824V77.824ZM113.464 80.896L112.849 81.6843C115.251 83.559 116.771 86.2043 117.375 89.7059L118.36 89.536L119.345 89.3661C118.669 85.4437 116.925 82.329 114.079 80.1077L113.464 80.896ZM118.36 89.536V88.536H110.968V89.536V90.536H118.36V89.536ZM110.968 89.536L111.946 89.3265C111.517 87.3273 110.55 85.7245 109.015 84.601L108.424 85.408L107.833 86.215C108.922 87.0115 109.651 88.1607 109.99 89.7455L110.968 89.536ZM108.424 85.408L109.037 84.6176C107.534 83.4533 105.602 82.92 103.336 82.92V83.92V84.92C105.294 84.92 106.754 85.3787 107.811 86.1984L108.424 85.408ZM103.336 83.92V82.92C101.22 82.92 99.3416 83.4252 97.7457 84.477L98.296 85.312L98.8463 86.147C100.066 85.3428 101.548 84.92 103.336 84.92V83.92ZM98.296 85.312L97.7503 84.474C96.1898 85.4901 95.0146 86.9494 94.2107 88.8019L95.128 89.2L96.0453 89.5981C96.7134 88.0586 97.6502 86.9258 98.8417 86.15L98.296 85.312ZM95.128 89.2L94.2107 88.8019C93.4078 90.652 93.024 92.8099 93.024 95.248H94.024H95.024C95.024 93.0141 95.3762 91.14 96.0453 89.5981L95.128 89.2ZM94.024 95.248H93.024C93.024 97.6861 93.4078 99.844 94.2107 101.694L95.128 101.296L96.0453 100.898C95.3762 99.356 95.024 97.4819 95.024 95.248H94.024ZM95.128 101.296L94.2135 101.701C95.018 103.519 96.1899 104.97 97.7369 106.013L98.296 105.184L98.8551 104.355C97.6501 103.542 96.71 102.401 96.0425 100.891L95.128 101.296ZM98.296 105.184L97.7591 106.028C99.3532 107.042 101.227 107.528 103.336 107.528V106.528V105.528C101.541 105.528 100.055 105.118 98.8329 104.34L98.296 105.184ZM103.336 106.528V107.528C105.582 107.528 107.499 107.052 108.997 106.003L108.424 105.184L107.851 104.365C106.789 105.108 105.314 105.528 103.336 105.528V106.528ZM108.424 105.184L109.011 105.994C110.493 104.919 111.467 103.433 111.937 101.591L110.968 101.344L109.999 101.097C109.637 102.519 108.915 103.593 107.837 104.374L108.424 105.184ZM110.968 101.344V102.344H118.36V101.344V100.344H110.968V101.344ZM118.36 101.344L117.376 101.164C116.778 104.427 115.268 106.953 112.855 108.807L113.464 109.6L114.073 110.393C116.908 108.215 118.662 105.237 119.344 101.524L118.36 101.344ZM113.464 109.6L112.861 108.802C110.448 110.627 107.331 111.576 103.432 111.576V112.576V113.576C107.661 113.576 111.232 112.541 114.067 110.398L113.464 109.6Z" fill="#102044" mask="url(#path-2-outside-1_214_1109)"/>
</svg>
