<svg width="136" height="192" viewBox="0 0 136 192" fill="none" xmlns="http://www.w3.org/2000/svg">
<circle cx="96" cy="96" r="93.5" stroke="#1A1A1A" stroke-width="5"/>
<path d="M101.432 112V78.4H108.152V112H101.432ZM80.264 112V78.4H86.984V112H80.264ZM86.12 97.552V92.128H102.536V97.552H86.12ZM112.04 122V118.803C113.211 117.843 114.363 116.893 115.496 115.952C116.648 115.011 117.675 114.08 118.577 113.158C119.499 112.218 120.229 111.306 120.766 110.422C121.304 109.52 121.573 108.656 121.573 107.83C121.573 107.35 121.477 106.909 121.285 106.506C121.112 106.083 120.833 105.757 120.449 105.526C120.085 105.277 119.595 105.152 118.981 105.152C118.385 105.152 117.877 105.286 117.454 105.555C117.032 105.824 116.715 106.198 116.504 106.678C116.293 107.139 116.187 107.677 116.187 108.291H112.011C112.069 106.755 112.414 105.478 113.048 104.461C113.681 103.443 114.526 102.694 115.582 102.214C116.657 101.734 117.838 101.494 119.125 101.494C120.622 101.494 121.87 101.773 122.869 102.33C123.867 102.867 124.616 103.597 125.115 104.518C125.633 105.421 125.893 106.429 125.893 107.542C125.893 108.426 125.739 109.28 125.432 110.106C125.125 110.912 124.702 111.699 124.165 112.467C123.627 113.216 123.013 113.946 122.321 114.656C121.649 115.347 120.939 116.019 120.19 116.672C119.441 117.306 118.702 117.91 117.973 118.486H126.296V122H112.04Z" fill="#1A1A1A"/>
</svg>
