<svg width="600" height="328" viewBox="0 0 600 328" fill="none" xmlns="http://www.w3.org/2000/svg">
<path d="M96 132.529C70 130.275 31.8333 149.904 16 160H581V41.3111C570.167 41.0763 544.8 40.7476 530 41.3111C511.5 42.0155 456.5 44.1287 429 61.3861C401.5 78.6436 364.5 89.9137 339 99.0707C313.5 108.228 219.5 115.272 188 109.989C156.5 104.706 128.5 135.347 96 132.529Z" fill="#416DD2" fill-opacity="0.5"/>
<path d="M581 160H16C122.996 161.568 339.202 173.994 348.057 182.148C359.126 192.34 452.202 201.356 487.923 199.2C516.5 197.475 561.882 205.015 581 209V160Z" fill="#95C08B" fill-opacity="0.89"/>
<path d="M18 113C49 123.667 121.9 142.3 165.5 131.5C220 118 331 122.256 365.5 131.5C400 140.744 441.5 180 476.5 181.5C504.5 182.7 557.833 184.333 581 185" stroke="#416DD2"/>
<line x1="583.75" y1="16.25" x2="16.25" y2="16.25" stroke="#E6E6E6" stroke-width="0.5" stroke-linecap="round" stroke-dasharray="2 0"/>
<line x1="583.75" y1="64.25" x2="16.25" y2="64.25" stroke="#E6E6E6" stroke-width="0.5" stroke-linecap="round" stroke-dasharray="2 0"/>
<line x1="583.75" y1="112.25" x2="16.25" y2="112.25" stroke="#E6E6E6" stroke-width="0.5" stroke-linecap="round" stroke-dasharray="2 0"/>
<line x1="583.75" y1="160.25" x2="16.25" y2="160.25" stroke="#E6E6E6" stroke-width="0.5" stroke-linecap="round" stroke-dasharray="2 0"/>
<line x1="583.75" y1="208.25" x2="16.25" y2="208.25" stroke="#E6E6E6" stroke-width="0.5" stroke-linecap="round" stroke-dasharray="2 0"/>
<line x1="584" y1="256.25" x2="16" y2="256.25" stroke="black" stroke-width="0.5"/>
<rect x="16" y="274" width="20" height="20" rx="10" fill="#A0B6E8"/>
<path d="M25.5 288.5C25.5 287.25 26.5 287.25 26.5 286M28 288.5C28 287.25 29 287.25 29 286M29.5 282L29.1 283.5C29.0716 283.639 28.9968 283.764 28.8877 283.855C28.7787 283.946 28.6419 283.997 28.5 284H23.5C23.3581 283.997 23.2213 283.946 23.1123 283.855C23.0032 283.764 22.9284 283.639 22.9 283.5L22.5 282M23 288.5C23 287.25 24 287.25 24 286M30.5 279.5C30.6326 279.5 30.7598 279.553 30.8536 279.646C30.9473 279.74 31 279.867 31 280V281C31 281.265 30.8946 281.52 30.7071 281.707C30.5196 281.895 30.2652 282 30 282H22C21.7348 282 21.4804 281.895 21.2929 281.707C21.1054 281.52 21 281.265 21 281V280C21 279.867 21.0527 279.74 21.1464 279.646C21.2402 279.553 21.3674 279.5 21.5 279.5H30.5Z" stroke="#416DD2" stroke-width="0.5" stroke-linecap="round" stroke-linejoin="round"/>
<path d="M44.536 288.144C43.728 288.144 43.028 287.964 42.436 287.604C41.844 287.236 41.388 286.728 41.068 286.08C40.748 285.424 40.588 284.664 40.588 283.8C40.588 282.936 40.748 282.18 41.068 281.532C41.388 280.876 41.844 280.368 42.436 280.008C43.036 279.64 43.736 279.456 44.536 279.456C45.48 279.456 46.244 279.68 46.828 280.128C47.42 280.568 47.8 281.192 47.968 282H47.044C46.916 281.456 46.644 281.02 46.228 280.692C45.812 280.356 45.248 280.188 44.536 280.188C43.92 280.188 43.38 280.332 42.916 280.62C42.452 280.908 42.092 281.324 41.836 281.868C41.58 282.404 41.452 283.048 41.452 283.8C41.452 284.552 41.58 285.2 41.836 285.744C42.092 286.28 42.452 286.692 42.916 286.98C43.38 287.268 43.92 287.412 44.536 287.412C45.248 287.412 45.808 287.248 46.216 286.92C46.632 286.592 46.908 286.16 47.044 285.624H47.968C47.792 286.416 47.412 287.036 46.828 287.484C46.252 287.924 45.488 288.144 44.536 288.144ZM51.3387 288.144C50.8507 288.144 50.4427 288.056 50.1147 287.88C49.7947 287.704 49.5547 287.476 49.3947 287.196C49.2427 286.916 49.1667 286.608 49.1667 286.272C49.1667 285.856 49.2707 285.504 49.4787 285.216C49.6947 284.928 49.9947 284.712 50.3787 284.568C50.7627 284.424 51.2107 284.352 51.7227 284.352H53.3547C53.3547 283.96 53.2947 283.628 53.1747 283.356C53.0547 283.084 52.8787 282.88 52.6467 282.744C52.4147 282.6 52.1227 282.528 51.7707 282.528C51.3627 282.528 51.0107 282.632 50.7147 282.84C50.4187 283.048 50.2347 283.352 50.1627 283.752H49.2867C49.3347 283.328 49.4787 282.972 49.7187 282.684C49.9667 282.396 50.2707 282.18 50.6307 282.036C50.9907 281.884 51.3707 281.808 51.7707 281.808C52.3307 281.808 52.7867 281.916 53.1387 282.132C53.4907 282.34 53.7547 282.628 53.9307 282.996C54.1067 283.364 54.1947 283.788 54.1947 284.268V288H53.4267L53.3787 286.896C53.3067 287.064 53.2067 287.224 53.0787 287.376C52.9587 287.528 52.8147 287.66 52.6467 287.772C52.4867 287.884 52.2987 287.972 52.0827 288.036C51.8667 288.108 51.6187 288.144 51.3387 288.144ZM51.4347 287.412C51.7307 287.412 51.9947 287.352 52.2267 287.232C52.4667 287.104 52.6707 286.94 52.8387 286.74C53.0067 286.54 53.1347 286.316 53.2227 286.068C53.3107 285.812 53.3547 285.548 53.3547 285.276V285.06H51.7827C51.3587 285.06 51.0187 285.112 50.7627 285.216C50.5067 285.32 50.3227 285.46 50.2107 285.636C50.0987 285.812 50.0427 286.016 50.0427 286.248C50.0427 286.48 50.0947 286.684 50.1987 286.86C50.3027 287.028 50.4587 287.164 50.6667 287.268C50.8827 287.364 51.1387 287.412 51.4347 287.412ZM55.7817 288V281.952H56.5497L56.6097 283.116C56.7377 282.836 56.9097 282.6 57.1257 282.408C57.3417 282.216 57.6017 282.068 57.9057 281.964C58.2097 281.86 58.5537 281.808 58.9377 281.808V282.684H58.6137C58.3577 282.684 58.1097 282.72 57.8697 282.792C57.6297 282.856 57.4177 282.968 57.2337 283.128C57.0497 283.288 56.9017 283.504 56.7897 283.776C56.6777 284.048 56.6217 284.388 56.6217 284.796V288H55.7817ZM63.2016 288.144C62.8496 288.144 62.5256 288.092 62.2296 287.988C61.9416 287.876 61.6896 287.728 61.4736 287.544C61.2576 287.352 61.0856 287.136 60.9576 286.896L60.8856 288H60.1176V279.36H60.9576V283.044C61.1576 282.7 61.4456 282.408 61.8216 282.168C62.1976 281.928 62.6576 281.808 63.2016 281.808C63.7936 281.808 64.3096 281.948 64.7496 282.228C65.1896 282.5 65.5256 282.876 65.7576 283.356C65.9976 283.828 66.1176 284.368 66.1176 284.976C66.1176 285.584 65.9976 286.128 65.7576 286.608C65.5176 287.088 65.1776 287.464 64.7376 287.736C64.3056 288.008 63.7936 288.144 63.2016 288.144ZM63.1416 287.412C63.5656 287.412 63.9336 287.312 64.2456 287.112C64.5576 286.912 64.8056 286.628 64.9896 286.26C65.1736 285.892 65.2656 285.464 65.2656 284.976C65.2656 284.48 65.1736 284.052 64.9896 283.692C64.8056 283.324 64.5536 283.04 64.2336 282.84C63.9216 282.64 63.5576 282.54 63.1416 282.54C62.7256 282.54 62.3536 282.64 62.0256 282.84C61.7056 283.04 61.4536 283.324 61.2696 283.692C61.0936 284.06 61.0056 284.488 61.0056 284.976C61.0056 285.472 61.0936 285.904 61.2696 286.272C61.4536 286.632 61.7056 286.912 62.0256 287.112C62.3536 287.312 62.7256 287.412 63.1416 287.412ZM70.223 288.144C69.671 288.144 69.171 288.016 68.723 287.76C68.283 287.496 67.935 287.128 67.679 286.656C67.423 286.176 67.295 285.62 67.295 284.988C67.295 284.332 67.423 283.768 67.679 283.296C67.943 282.824 68.299 282.46 68.747 282.204C69.195 281.94 69.695 281.808 70.247 281.808C70.823 281.808 71.331 281.94 71.771 282.204C72.211 282.46 72.559 282.824 72.815 283.296C73.071 283.768 73.199 284.332 73.199 284.988C73.199 285.62 73.067 286.176 72.803 286.656C72.547 287.128 72.195 287.496 71.747 287.76C71.307 288.016 70.799 288.144 70.223 288.144ZM70.235 287.424C70.611 287.424 70.955 287.332 71.267 287.148C71.587 286.964 71.843 286.692 72.035 286.332C72.235 285.964 72.335 285.512 72.335 284.976C72.335 284.432 72.239 283.98 72.047 283.62C71.855 283.26 71.599 282.992 71.279 282.816C70.967 282.632 70.623 282.54 70.247 282.54C69.887 282.54 69.547 282.632 69.227 282.816C68.907 283 68.647 283.272 68.447 283.632C68.255 283.984 68.159 284.432 68.159 284.976C68.159 285.512 68.255 285.964 68.447 286.332C68.639 286.692 68.891 286.964 69.203 287.148C69.523 287.332 69.867 287.424 70.235 287.424ZM74.6372 288V281.952H75.4052L75.4532 283.032C75.6452 282.648 75.9212 282.348 76.2812 282.132C76.6492 281.916 77.0572 281.808 77.5052 281.808C77.9692 281.808 78.3732 281.9 78.7172 282.084C79.0612 282.268 79.3292 282.548 79.5212 282.924C79.7132 283.292 79.8092 283.764 79.8092 284.34V288H78.9692V284.436C78.9692 283.796 78.8292 283.32 78.5492 283.008C78.2692 282.696 77.8692 282.54 77.3492 282.54C76.9972 282.54 76.6772 282.628 76.3892 282.804C76.1092 282.972 75.8852 283.22 75.7172 283.548C75.5572 283.876 75.4772 284.28 75.4772 284.76V288H74.6372ZM84.7876 288V279.6H89.8876V280.296H85.6276V283.428H89.5276V284.124H85.6276V287.304H89.8876V288H84.7876ZM91.4418 288V281.952H92.2098L92.2698 282.864C92.4538 282.528 92.7098 282.268 93.0378 282.084C93.3658 281.9 93.7298 281.808 94.1298 281.808C94.4258 281.808 94.7018 281.852 94.9578 281.94C95.2138 282.028 95.4378 282.16 95.6298 282.336C95.8298 282.512 95.9858 282.74 96.0978 283.02C96.2978 282.644 96.5778 282.348 96.9378 282.132C97.3058 281.916 97.6978 281.808 98.1138 281.808C98.5778 281.808 98.9778 281.9 99.3138 282.084C99.6578 282.268 99.9258 282.548 100.118 282.924C100.31 283.3 100.406 283.776 100.406 284.352V288H99.5658V284.448C99.5658 283.808 99.4338 283.332 99.1698 283.02C98.9058 282.7 98.5378 282.54 98.0658 282.54C97.7458 282.54 97.4538 282.628 97.1898 282.804C96.9258 282.972 96.7178 283.22 96.5658 283.548C96.4138 283.868 96.3378 284.268 96.3378 284.748V288H95.4978V284.448C95.4978 283.808 95.3658 283.332 95.1018 283.02C94.8458 282.7 94.4818 282.54 94.0098 282.54C93.6818 282.54 93.3858 282.628 93.1218 282.804C92.8658 282.972 92.6618 283.224 92.5098 283.56C92.3578 283.888 92.2818 284.296 92.2818 284.784V288H91.4418ZM101.989 288V281.952H102.757L102.817 282.864C103.001 282.528 103.257 282.268 103.585 282.084C103.913 281.9 104.277 281.808 104.677 281.808C104.973 281.808 105.249 281.852 105.505 281.94C105.761 282.028 105.985 282.16 106.177 282.336C106.377 282.512 106.533 282.74 106.645 283.02C106.845 282.644 107.125 282.348 107.485 282.132C107.853 281.916 108.245 281.808 108.661 281.808C109.125 281.808 109.525 281.9 109.861 282.084C110.205 282.268 110.473 282.548 110.665 282.924C110.857 283.3 110.953 283.776 110.953 284.352V288H110.113V284.448C110.113 283.808 109.981 283.332 109.717 283.02C109.453 282.7 109.085 282.54 108.613 282.54C108.293 282.54 108.001 282.628 107.737 282.804C107.473 282.972 107.265 283.22 107.113 283.548C106.961 283.868 106.885 284.268 106.885 284.748V288H106.045V284.448C106.045 283.808 105.913 283.332 105.649 283.02C105.393 282.7 105.029 282.54 104.557 282.54C104.229 282.54 103.933 282.628 103.669 282.804C103.413 282.972 103.209 283.224 103.057 283.56C102.905 283.888 102.829 284.296 102.829 284.784V288H101.989ZM112.656 288V281.952H113.484V288H112.656ZM113.076 280.524C112.908 280.524 112.764 280.468 112.644 280.356C112.524 280.236 112.464 280.088 112.464 279.912C112.464 279.728 112.52 279.584 112.632 279.48C112.752 279.368 112.896 279.312 113.064 279.312C113.232 279.312 113.376 279.368 113.496 279.48C113.616 279.584 113.676 279.728 113.676 279.912C113.676 280.088 113.616 280.236 113.496 280.356C113.384 280.468 113.244 280.524 113.076 280.524ZM117.533 288.144C117.053 288.144 116.629 288.064 116.261 287.904C115.901 287.744 115.609 287.516 115.385 287.22C115.169 286.916 115.037 286.556 114.989 286.14H115.853C115.901 286.372 115.993 286.584 116.129 286.776C116.273 286.968 116.465 287.124 116.705 287.244C116.945 287.356 117.229 287.412 117.557 287.412C117.861 287.412 118.109 287.368 118.301 287.28C118.501 287.184 118.649 287.06 118.745 286.908C118.849 286.748 118.901 286.572 118.901 286.38C118.901 286.116 118.837 285.912 118.709 285.768C118.589 285.616 118.413 285.504 118.181 285.432C117.949 285.36 117.669 285.292 117.341 285.228C117.069 285.18 116.809 285.116 116.561 285.036C116.313 284.956 116.089 284.852 115.889 284.724C115.697 284.596 115.545 284.436 115.433 284.244C115.321 284.044 115.265 283.812 115.265 283.548C115.265 283.204 115.349 282.904 115.517 282.648C115.693 282.384 115.941 282.18 116.261 282.036C116.581 281.884 116.957 281.808 117.389 281.808C118.005 281.808 118.509 281.964 118.901 282.276C119.293 282.58 119.521 283.028 119.585 283.62H118.745C118.713 283.292 118.577 283.032 118.337 282.84C118.097 282.648 117.773 282.552 117.365 282.552C116.965 282.552 116.657 282.636 116.441 282.804C116.233 282.964 116.129 283.184 116.129 283.464C116.129 283.64 116.185 283.792 116.297 283.92C116.409 284.048 116.573 284.16 116.789 284.256C117.013 284.344 117.285 284.42 117.605 284.484C117.989 284.556 118.341 284.652 118.661 284.772C118.989 284.884 119.253 285.06 119.453 285.3C119.661 285.532 119.765 285.864 119.765 286.296C119.773 286.656 119.685 286.976 119.501 287.256C119.317 287.536 119.057 287.756 118.721 287.916C118.385 288.068 117.989 288.144 117.533 288.144ZM121.374 288V281.952H122.202V288H121.374ZM121.794 280.524C121.626 280.524 121.482 280.468 121.362 280.356C121.242 280.236 121.182 280.088 121.182 279.912C121.182 279.728 121.238 279.584 121.35 279.48C121.47 279.368 121.614 279.312 121.782 279.312C121.95 279.312 122.094 279.368 122.214 279.48C122.334 279.584 122.394 279.728 122.394 279.912C122.394 280.088 122.334 280.236 122.214 280.356C122.102 280.468 121.962 280.524 121.794 280.524ZM126.696 288.144C126.144 288.144 125.644 288.016 125.196 287.76C124.756 287.496 124.408 287.128 124.152 286.656C123.896 286.176 123.768 285.62 123.768 284.988C123.768 284.332 123.896 283.768 124.152 283.296C124.416 282.824 124.772 282.46 125.22 282.204C125.668 281.94 126.168 281.808 126.72 281.808C127.296 281.808 127.804 281.94 128.244 282.204C128.684 282.46 129.032 282.824 129.288 283.296C129.544 283.768 129.672 284.332 129.672 284.988C129.672 285.62 129.54 286.176 129.276 286.656C129.02 287.128 128.668 287.496 128.22 287.76C127.78 288.016 127.272 288.144 126.696 288.144ZM126.708 287.424C127.084 287.424 127.428 287.332 127.74 287.148C128.06 286.964 128.316 286.692 128.508 286.332C128.708 285.964 128.808 285.512 128.808 284.976C128.808 284.432 128.712 283.98 128.52 283.62C128.328 283.26 128.072 282.992 127.752 282.816C127.44 282.632 127.096 282.54 126.72 282.54C126.36 282.54 126.02 282.632 125.7 282.816C125.38 283 125.12 283.272 124.92 283.632C124.728 283.984 124.632 284.432 124.632 284.976C124.632 285.512 124.728 285.964 124.92 286.332C125.112 286.692 125.364 286.964 125.676 287.148C125.996 287.332 126.34 287.424 126.708 287.424ZM131.11 288V281.952H131.878L131.926 283.032C132.118 282.648 132.394 282.348 132.754 282.132C133.122 281.916 133.53 281.808 133.978 281.808C134.442 281.808 134.846 281.9 135.19 282.084C135.534 282.268 135.802 282.548 135.994 282.924C136.186 283.292 136.282 283.764 136.282 284.34V288H135.442V284.436C135.442 283.796 135.302 283.32 135.022 283.008C134.742 282.696 134.342 282.54 133.822 282.54C133.47 282.54 133.15 282.628 132.862 282.804C132.582 282.972 132.358 283.22 132.19 283.548C132.03 283.876 131.95 284.28 131.95 284.76V288H131.11Z" fill="#416DD2"/>
<rect x="166" y="274" width="20" height="20" rx="10" fill="#A1C797"/>
<path d="M176.07 279.954C175.74 279.871 169.438 288.036 175.918 288.046C182.761 288.057 176.07 279.954 176.07 279.954Z" fill="white"/>
<path d="M194.512 288.144C193.728 288.144 193.04 287.964 192.448 287.604C191.856 287.236 191.396 286.728 191.068 286.08C190.748 285.424 190.588 284.664 190.588 283.8C190.588 282.944 190.752 282.192 191.08 281.544C191.416 280.888 191.884 280.376 192.484 280.008C193.092 279.64 193.808 279.456 194.632 279.456C195.56 279.456 196.336 279.68 196.96 280.128C197.584 280.576 197.984 281.2 198.16 282H197.176C197.064 281.456 196.784 281.024 196.336 280.704C195.896 280.384 195.328 280.224 194.632 280.224C193.992 280.224 193.432 280.368 192.952 280.656C192.48 280.944 192.112 281.356 191.848 281.892C191.584 282.42 191.452 283.056 191.452 283.8C191.452 284.544 191.58 285.184 191.836 285.72C192.1 286.256 192.46 286.668 192.916 286.956C193.38 287.244 193.912 287.388 194.512 287.388C195.456 287.388 196.164 287.108 196.636 286.548C197.116 285.988 197.388 285.216 197.452 284.232H194.92V283.548H198.316V288H197.548L197.476 286.512C197.268 286.856 197.028 287.152 196.756 287.4C196.492 287.648 196.176 287.836 195.808 287.964C195.448 288.084 195.016 288.144 194.512 288.144ZM199.911 288V281.952H200.679L200.739 283.116C200.867 282.836 201.039 282.6 201.255 282.408C201.471 282.216 201.731 282.068 202.035 281.964C202.339 281.86 202.683 281.808 203.067 281.808V282.684H202.743C202.487 282.684 202.239 282.72 201.999 282.792C201.759 282.856 201.547 282.968 201.363 283.128C201.179 283.288 201.031 283.504 200.919 283.776C200.807 284.048 200.751 284.388 200.751 284.796V288H199.911ZM206.179 288.144C205.691 288.144 205.283 288.056 204.955 287.88C204.635 287.704 204.395 287.476 204.235 287.196C204.083 286.916 204.007 286.608 204.007 286.272C204.007 285.856 204.111 285.504 204.319 285.216C204.535 284.928 204.835 284.712 205.219 284.568C205.603 284.424 206.051 284.352 206.563 284.352H208.195C208.195 283.96 208.135 283.628 208.015 283.356C207.895 283.084 207.719 282.88 207.487 282.744C207.255 282.6 206.963 282.528 206.611 282.528C206.203 282.528 205.851 282.632 205.555 282.84C205.259 283.048 205.075 283.352 205.003 283.752H204.127C204.175 283.328 204.319 282.972 204.559 282.684C204.807 282.396 205.111 282.18 205.471 282.036C205.831 281.884 206.211 281.808 206.611 281.808C207.171 281.808 207.627 281.916 207.979 282.132C208.331 282.34 208.595 282.628 208.771 282.996C208.947 283.364 209.035 283.788 209.035 284.268V288H208.267L208.219 286.896C208.147 287.064 208.047 287.224 207.919 287.376C207.799 287.528 207.655 287.66 207.487 287.772C207.327 287.884 207.139 287.972 206.923 288.036C206.707 288.108 206.459 288.144 206.179 288.144ZM206.275 287.412C206.571 287.412 206.835 287.352 207.067 287.232C207.307 287.104 207.511 286.94 207.679 286.74C207.847 286.54 207.975 286.316 208.063 286.068C208.151 285.812 208.195 285.548 208.195 285.276V285.06H206.623C206.199 285.06 205.859 285.112 205.603 285.216C205.347 285.32 205.163 285.46 205.051 285.636C204.939 285.812 204.883 286.016 204.883 286.248C204.883 286.48 204.935 286.684 205.039 286.86C205.143 287.028 205.299 287.164 205.507 287.268C205.723 287.364 205.979 287.412 206.275 287.412ZM210.982 288V280.908C210.982 280.556 211.038 280.268 211.15 280.044C211.27 279.812 211.446 279.64 211.678 279.528C211.91 279.416 212.202 279.36 212.554 279.36H213.238V280.08H212.698C212.378 280.08 212.15 280.144 212.014 280.272C211.886 280.4 211.822 280.624 211.822 280.944V288H210.982ZM210.046 282.672V281.952H213.394V282.672H210.046ZM217.047 288.144C216.495 288.144 215.995 288.016 215.547 287.76C215.107 287.496 214.759 287.128 214.503 286.656C214.247 286.176 214.119 285.62 214.119 284.988C214.119 284.332 214.247 283.768 214.503 283.296C214.767 282.824 215.123 282.46 215.571 282.204C216.019 281.94 216.519 281.808 217.071 281.808C217.647 281.808 218.155 281.94 218.595 282.204C219.035 282.46 219.383 282.824 219.639 283.296C219.895 283.768 220.023 284.332 220.023 284.988C220.023 285.62 219.891 286.176 219.627 286.656C219.371 287.128 219.019 287.496 218.571 287.76C218.131 288.016 217.623 288.144 217.047 288.144ZM217.059 287.424C217.435 287.424 217.779 287.332 218.091 287.148C218.411 286.964 218.667 286.692 218.859 286.332C219.059 285.964 219.159 285.512 219.159 284.976C219.159 284.432 219.063 283.98 218.871 283.62C218.679 283.26 218.423 282.992 218.103 282.816C217.791 282.632 217.447 282.54 217.071 282.54C216.711 282.54 216.371 282.632 216.051 282.816C215.731 283 215.471 283.272 215.271 283.632C215.079 283.984 214.983 284.432 214.983 284.976C214.983 285.512 215.079 285.964 215.271 286.332C215.463 286.692 215.715 286.964 216.027 287.148C216.347 287.332 216.691 287.424 217.059 287.424ZM221.461 288V281.952H222.229L222.289 283.116C222.417 282.836 222.589 282.6 222.805 282.408C223.021 282.216 223.281 282.068 223.585 281.964C223.889 281.86 224.233 281.808 224.617 281.808V282.684H224.293C224.037 282.684 223.789 282.72 223.549 282.792C223.309 282.856 223.097 282.968 222.913 283.128C222.729 283.288 222.581 283.504 222.469 283.776C222.357 284.048 222.301 284.388 222.301 284.796V288H221.461ZM228.204 288.144C227.644 288.144 227.144 288.012 226.704 287.748C226.264 287.484 225.916 287.116 225.66 286.644C225.404 286.164 225.276 285.612 225.276 284.988C225.276 284.34 225.404 283.784 225.66 283.32C225.916 282.848 226.264 282.48 226.704 282.216C227.152 281.944 227.652 281.808 228.204 281.808C228.908 281.808 229.492 281.992 229.956 282.36C230.428 282.72 230.728 283.2 230.855 283.8H230.016C229.928 283.4 229.716 283.092 229.38 282.876C229.052 282.652 228.656 282.54 228.192 282.54C227.832 282.54 227.496 282.632 227.184 282.816C226.872 282.992 226.62 283.26 226.428 283.62C226.236 283.98 226.14 284.436 226.14 284.988C226.14 285.396 226.196 285.752 226.308 286.056C226.42 286.36 226.572 286.616 226.764 286.824C226.956 287.024 227.176 287.176 227.424 287.28C227.672 287.384 227.928 287.436 228.192 287.436C228.496 287.436 228.772 287.388 229.02 287.292C229.276 287.188 229.492 287.04 229.668 286.848C229.844 286.656 229.96 286.424 230.016 286.152H230.855C230.736 286.736 230.44 287.216 229.968 287.592C229.496 287.96 228.908 288.144 228.204 288.144ZM234.893 288.144C234.333 288.144 233.837 288.012 233.405 287.748C232.981 287.484 232.645 287.116 232.397 286.644C232.157 286.164 232.037 285.604 232.037 284.964C232.037 284.324 232.157 283.768 232.397 283.296C232.637 282.824 232.973 282.46 233.405 282.204C233.845 281.94 234.349 281.808 234.917 281.808C235.501 281.808 235.993 281.94 236.393 282.204C236.801 282.468 237.109 282.812 237.317 283.236C237.533 283.66 237.641 284.124 237.641 284.628C237.641 284.708 237.641 284.792 237.641 284.88C237.641 284.96 237.637 285.056 237.629 285.168H232.673V284.46H236.825C236.809 283.844 236.617 283.368 236.249 283.032C235.889 282.696 235.433 282.528 234.881 282.528C234.521 282.528 234.185 282.612 233.873 282.78C233.569 282.94 233.321 283.18 233.129 283.5C232.945 283.812 232.853 284.208 232.853 284.688V285C232.853 285.544 232.949 285.996 233.141 286.356C233.333 286.716 233.585 286.984 233.897 287.16C234.217 287.336 234.549 287.424 234.893 287.424C235.349 287.424 235.725 287.324 236.021 287.124C236.317 286.916 236.529 286.632 236.657 286.272H237.485C237.381 286.624 237.213 286.944 236.981 287.232C236.757 287.52 236.469 287.744 236.117 287.904C235.765 288.064 235.357 288.144 234.893 288.144Z" fill="#A1C797"/>
<rect x="255" y="274" width="20" height="20" rx="10" fill="#416DD2"/>
<path d="M265.002 284.5C265.278 284.5 265.502 284.276 265.502 284C265.502 283.724 265.278 283.5 265.002 283.5C264.726 283.5 264.502 283.724 264.502 284C264.502 284.276 264.726 284.5 265.002 284.5Z" stroke="#7FA1ED" stroke-width="0.4" stroke-linecap="round" stroke-linejoin="round"/>
<path d="M269.102 288.1C270.122 287.085 269.112 284.42 266.852 282.15C264.582 279.89 261.917 278.88 260.902 279.9C259.882 280.915 260.892 283.58 263.152 285.85C265.422 288.11 268.087 289.12 269.102 288.1Z" stroke="#7FA1ED" stroke-width="0.4" stroke-linecap="round" stroke-linejoin="round"/>
<path d="M266.852 285.85C269.112 283.58 270.122 280.915 269.102 279.9C268.087 278.88 265.422 279.89 263.152 282.15C260.892 284.42 259.882 287.085 260.902 288.1C261.917 289.12 264.582 288.11 266.852 285.85Z" stroke="#7FA1ED" stroke-width="0.4" stroke-linecap="round" stroke-linejoin="round"/>
<path d="M285.324 288V279.6H286.164V288H285.324ZM279.936 288V279.6H280.776V288H279.936ZM280.584 284.076V283.38H285.564V284.076H280.584ZM288.574 290.64L290.062 287.328H289.738L287.35 281.952H288.262L290.326 286.752L292.498 281.952H293.362L289.45 290.64H288.574ZM296.531 288.144C295.947 288.144 295.435 288.008 294.995 287.736C294.563 287.456 294.227 287.076 293.987 286.596C293.747 286.116 293.627 285.572 293.627 284.964C293.627 284.356 293.747 283.816 293.987 283.344C294.227 282.864 294.567 282.488 295.007 282.216C295.447 281.944 295.959 281.808 296.543 281.808C297.055 281.808 297.503 281.92 297.887 282.144C298.279 282.36 298.579 282.668 298.787 283.068V279.36H299.627V288H298.859L298.787 286.908C298.659 287.116 298.491 287.316 298.283 287.508C298.083 287.7 297.835 287.856 297.539 287.976C297.251 288.088 296.915 288.144 296.531 288.144ZM296.603 287.412C297.027 287.412 297.395 287.312 297.707 287.112C298.027 286.912 298.275 286.628 298.451 286.26C298.635 285.892 298.727 285.464 298.727 284.976C298.727 284.488 298.635 284.06 298.451 283.692C298.275 283.324 298.027 283.04 297.707 282.84C297.395 282.64 297.027 282.54 296.603 282.54C296.187 282.54 295.819 282.64 295.499 282.84C295.179 283.04 294.927 283.324 294.743 283.692C294.567 284.052 294.479 284.48 294.479 284.976C294.479 285.472 294.571 285.904 294.755 286.272C294.939 286.632 295.191 286.912 295.511 287.112C295.831 287.312 296.195 287.412 296.603 287.412ZM301.332 288V281.952H302.1L302.16 283.116C302.288 282.836 302.46 282.6 302.676 282.408C302.892 282.216 303.152 282.068 303.456 281.964C303.76 281.86 304.104 281.808 304.488 281.808V282.684H304.164C303.908 282.684 303.66 282.72 303.42 282.792C303.18 282.856 302.968 282.968 302.784 283.128C302.6 283.288 302.452 283.504 302.34 283.776C302.228 284.048 302.172 284.388 302.172 284.796V288H301.332ZM308.075 288.144C307.523 288.144 307.023 288.016 306.575 287.76C306.135 287.496 305.787 287.128 305.531 286.656C305.275 286.176 305.147 285.62 305.147 284.988C305.147 284.332 305.275 283.768 305.531 283.296C305.795 282.824 306.151 282.46 306.599 282.204C307.047 281.94 307.547 281.808 308.099 281.808C308.675 281.808 309.183 281.94 309.623 282.204C310.063 282.46 310.411 282.824 310.667 283.296C310.923 283.768 311.051 284.332 311.051 284.988C311.051 285.62 310.919 286.176 310.655 286.656C310.399 287.128 310.047 287.496 309.599 287.76C309.159 288.016 308.651 288.144 308.075 288.144ZM308.087 287.424C308.463 287.424 308.807 287.332 309.119 287.148C309.439 286.964 309.695 286.692 309.887 286.332C310.087 285.964 310.187 285.512 310.187 284.976C310.187 284.432 310.091 283.98 309.899 283.62C309.707 283.26 309.451 282.992 309.131 282.816C308.819 282.632 308.475 282.54 308.099 282.54C307.739 282.54 307.399 282.632 307.079 282.816C306.759 283 306.499 283.272 306.299 283.632C306.107 283.984 306.011 284.432 306.011 284.976C306.011 285.512 306.107 285.964 306.299 286.332C306.491 286.692 306.743 286.964 307.055 287.148C307.375 287.332 307.719 287.424 308.087 287.424ZM314.606 290.784C314.07 290.784 313.594 290.712 313.178 290.568C312.77 290.424 312.446 290.208 312.206 289.92C311.974 289.632 311.858 289.276 311.858 288.852C311.858 288.684 311.886 288.5 311.942 288.3C312.006 288.108 312.126 287.912 312.302 287.712C312.478 287.512 312.726 287.332 313.046 287.172L313.73 287.472C313.306 287.672 313.03 287.888 312.902 288.12C312.774 288.36 312.71 288.576 312.71 288.768C312.71 289.056 312.79 289.296 312.95 289.488C313.118 289.68 313.342 289.824 313.622 289.92C313.91 290.024 314.238 290.076 314.606 290.076C314.974 290.076 315.29 290.02 315.554 289.908C315.826 289.804 316.034 289.652 316.178 289.452C316.322 289.26 316.394 289.036 316.394 288.78C316.394 288.484 316.278 288.232 316.046 288.024C315.822 287.824 315.402 287.708 314.786 287.676C314.298 287.644 313.894 287.604 313.574 287.556C313.262 287.5 313.002 287.436 312.794 287.364C312.594 287.284 312.426 287.2 312.29 287.112C312.162 287.024 312.038 286.928 311.918 286.824V286.548L313.07 285.456L313.838 285.732L312.71 286.74L312.782 286.416C312.87 286.48 312.954 286.54 313.034 286.596C313.122 286.652 313.234 286.7 313.37 286.74C313.514 286.772 313.71 286.808 313.958 286.848C314.214 286.88 314.558 286.912 314.99 286.944C315.542 286.984 315.982 287.08 316.31 287.232C316.638 287.384 316.878 287.588 317.03 287.844C317.182 288.1 317.258 288.4 317.258 288.744C317.258 289.088 317.162 289.416 316.97 289.728C316.786 290.04 316.498 290.292 316.106 290.484C315.722 290.684 315.222 290.784 314.606 290.784ZM314.594 286.08C314.082 286.08 313.65 285.984 313.298 285.792C312.954 285.6 312.69 285.344 312.506 285.024C312.322 284.696 312.23 284.336 312.23 283.944C312.23 283.544 312.322 283.184 312.506 282.864C312.69 282.544 312.958 282.288 313.31 282.096C313.662 281.904 314.09 281.808 314.594 281.808C315.106 281.808 315.534 281.904 315.878 282.096C316.23 282.288 316.494 282.544 316.67 282.864C316.854 283.184 316.946 283.544 316.946 283.944C316.946 284.336 316.854 284.696 316.67 285.024C316.494 285.344 316.23 285.6 315.878 285.792C315.534 285.984 315.106 286.08 314.594 286.08ZM314.594 285.36C315.058 285.36 315.422 285.24 315.686 285C315.958 284.752 316.094 284.4 316.094 283.944C316.094 283.48 315.958 283.128 315.686 282.888C315.422 282.648 315.058 282.528 314.594 282.528C314.13 282.528 313.758 282.648 313.478 282.888C313.206 283.128 313.07 283.48 313.07 283.944C313.07 284.4 313.206 284.752 313.478 285C313.75 285.24 314.122 285.36 314.594 285.36ZM315.578 282.708L315.278 281.952H317.726V282.636L315.578 282.708ZM321.245 288.144C320.685 288.144 320.189 288.012 319.757 287.748C319.333 287.484 318.997 287.116 318.749 286.644C318.509 286.164 318.389 285.604 318.389 284.964C318.389 284.324 318.509 283.768 318.749 283.296C318.989 282.824 319.325 282.46 319.757 282.204C320.197 281.94 320.701 281.808 321.269 281.808C321.853 281.808 322.345 281.94 322.745 282.204C323.153 282.468 323.461 282.812 323.669 283.236C323.885 283.66 323.993 284.124 323.993 284.628C323.993 284.708 323.993 284.792 323.993 284.88C323.993 284.96 323.989 285.056 323.981 285.168H319.025V284.46H323.177C323.161 283.844 322.969 283.368 322.601 283.032C322.241 282.696 321.785 282.528 321.233 282.528C320.873 282.528 320.537 282.612 320.225 282.78C319.921 282.94 319.673 283.18 319.481 283.5C319.297 283.812 319.205 284.208 319.205 284.688V285C319.205 285.544 319.301 285.996 319.493 286.356C319.685 286.716 319.937 286.984 320.249 287.16C320.569 287.336 320.901 287.424 321.245 287.424C321.701 287.424 322.077 287.324 322.373 287.124C322.669 286.916 322.881 286.632 323.009 286.272H323.837C323.733 286.624 323.565 286.944 323.333 287.232C323.109 287.52 322.821 287.744 322.469 287.904C322.117 288.064 321.709 288.144 321.245 288.144ZM325.368 288V281.952H326.136L326.184 283.032C326.376 282.648 326.652 282.348 327.012 282.132C327.38 281.916 327.788 281.808 328.236 281.808C328.7 281.808 329.104 281.9 329.448 282.084C329.792 282.268 330.06 282.548 330.252 282.924C330.444 283.292 330.54 283.764 330.54 284.34V288H329.7V284.436C329.7 283.796 329.56 283.32 329.28 283.008C329 282.696 328.6 282.54 328.08 282.54C327.728 282.54 327.408 282.628 327.12 282.804C326.84 282.972 326.616 283.22 326.448 283.548C326.288 283.876 326.208 284.28 326.208 284.76V288H325.368Z" fill="#416DD2"/>
</svg>
