<svg width="99" height="112" viewBox="0 0 99 112" fill="none" xmlns="http://www.w3.org/2000/svg">
<path d="M80.7616 56.2869L90.8745 46.2508C101.333 35.8688 101.333 18.9114 90.8745 8.5293C80.4155 -1.85278 63.3428 -1.85278 52.8838 8.5293L49.1924 12.1822C44.309 5.22241 36.2725 0.685059 27.1209 0.685059C12.3168 0.685059 0.28125 12.6437 0.28125 27.3324V85.126C0.28125 99.8531 12.3168 111.773 27.1209 111.773C36.3109 111.773 44.309 107.236 49.1924 100.276L52.8838 103.929C63.3428 114.311 80.4155 114.311 90.8745 103.929C101.333 93.547 101.333 76.5896 90.8745 66.2075L80.7616 56.2869Z" fill="#102044"/>
</svg>
