<svg width="1280" height="887" viewBox="0 0 1280 887" fill="none" xmlns="http://www.w3.org/2000/svg">
<g clip-path="url(#clip0_61_740)">
<g opacity="0.11" filter="url(#filter0_f_61_740)">
<path d="M1134.82 846.549C1149.4 841.412 1157.06 825.424 1151.93 810.838L891.174 70.4101C886.038 55.8242 870.049 48.164 855.464 53.3007L652.671 124.717C638.085 129.854 630.425 145.842 635.562 160.428L896.314 900.856C901.451 915.442 917.439 923.102 932.025 917.965L1134.82 846.549Z" fill="#D9D9D9"/>
<path d="M1134.82 846.549C1149.4 841.412 1157.06 825.424 1151.93 810.838L891.174 70.4101C886.038 55.8242 870.049 48.164 855.464 53.3007L652.671 124.717C638.085 129.854 630.425 145.842 635.562 160.428L896.314 900.856C901.451 915.442 917.439 923.102 932.025 917.965L1134.82 846.549Z" fill="white" fill-opacity="0.2"/>
<path d="M1368.45 -258.768C1360.93 -272.598 1343.49 -277.51 1329.85 -269.639L650.649 122.5C637.257 130.232 632.668 147.357 640.4 160.749L750.298 351.098C757.028 362.753 771.098 367.972 783.801 363.524L1528.15 102.881C1544.44 97.1773 1551.74 78.2379 1543.5 63.0764L1368.45 -258.768Z" fill="#D9D9D9"/>
<path d="M1368.45 -258.768C1360.93 -272.598 1343.49 -277.51 1329.85 -269.639L650.649 122.5C637.257 130.232 632.668 147.357 640.4 160.749L750.298 351.098C757.028 362.753 771.098 367.972 783.801 363.524L1528.15 102.881C1544.44 97.1773 1551.74 78.2379 1543.5 63.0764L1368.45 -258.768Z" fill="white" fill-opacity="0.2"/>
<path d="M474.865 1043.33C449.985 1063.33 472.601 1102.71 502.417 1091.3L1125.33 852.936C1143.07 846.148 1149.04 824.043 1137.14 809.24L1008.96 649.821C999.27 637.77 981.645 635.855 969.593 645.545L474.865 1043.33Z" fill="#D9D9D9"/>
<path d="M474.865 1043.33C449.985 1063.33 472.601 1102.71 502.417 1091.3L1125.33 852.936C1143.07 846.148 1149.04 824.043 1137.14 809.24L1008.96 649.821C999.27 637.77 981.645 635.855 969.593 645.545L474.865 1043.33Z" fill="white" fill-opacity="0.2"/>
</g>
</g>
<defs>
<filter id="filter0_f_61_740" x="455.309" y="-282.296" width="1100.5" height="1384.53" filterUnits="userSpaceOnUse" color-interpolation-filters="sRGB">
<feFlood flood-opacity="0" result="BackgroundImageFix"/>
<feBlend mode="normal" in="SourceGraphic" in2="BackgroundImageFix" result="shape"/>
<feGaussianBlur stdDeviation="4.45" result="effect1_foregroundBlur_61_740"/>
</filter>
<clipPath id="clip0_61_740">
<rect width="1280" height="887" fill="white"/>
</clipPath>
</defs>
</svg>
