<svg width="35" height="34" viewBox="0 0 35 34" fill="none" xmlns="http://www.w3.org/2000/svg">
<path d="M32.689 22.3386V11.4289C33.4631 11.1529 34.022 10.42 34.022 9.55224C34.022 8.44964 33.1251 7.55273 32.0225 7.55273C31.4836 7.55273 30.9959 7.76923 30.6359 8.117L19.3347 2.45982C19.3443 2.38049 19.3589 2.30259 19.3589 2.2207C19.3589 1.11811 18.462 0.221191 17.3594 0.221191C16.2568 0.221191 15.3599 1.11811 15.3599 2.2207C15.3599 2.30259 15.3744 2.3805 15.384 2.45982L4.08283 8.117C3.72289 7.76923 3.23518 7.55273 2.69629 7.55273C1.59369 7.55273 0.696777 8.44964 0.696777 9.55224C0.696777 10.42 1.25564 11.1529 2.02979 11.4289V13.5513C2.02979 13.9197 2.32789 14.2178 2.69629 14.2178C3.06469 14.2178 3.36279 13.9197 3.36279 13.5513V11.4289C4.13694 11.1529 4.6958 10.42 4.6958 9.55224C4.6958 9.47035 4.68124 9.39244 4.67164 9.31312L15.9728 3.65594C16.3328 4.00371 16.8205 4.22021 17.3594 4.22021C17.8983 4.22021 18.386 4.00371 18.7459 3.65594L30.0471 9.31312C30.0375 9.39245 30.0229 9.47035 30.0229 9.55224C30.0229 10.42 30.5818 11.1529 31.356 11.4289V22.3386C30.5818 22.6146 30.0229 23.3476 30.0229 24.2153C30.0229 24.2972 30.0375 24.3751 30.0471 24.4544L18.7459 30.1116C18.386 29.7638 17.8983 29.5473 17.3594 29.5473C16.8205 29.5473 16.3328 29.7638 15.9728 30.1116L4.67164 24.4544C4.68124 24.3751 4.6958 24.2972 4.6958 24.2153C4.6958 23.3476 4.13694 22.6146 3.36279 22.3386V16.2173C3.36279 15.8489 3.06469 15.5508 2.69629 15.5508C2.32789 15.5508 2.02979 15.8489 2.02979 16.2173V22.3386C1.25564 22.6146 0.696777 23.3476 0.696777 24.2153C0.696777 25.3179 1.59369 26.2148 2.69629 26.2148C3.23518 26.2148 3.72289 25.9983 4.08283 25.6506L15.384 31.3077C15.3744 31.3871 15.3599 31.465 15.3599 31.5469C15.3599 32.6494 16.2568 33.5464 17.3594 33.5464C18.462 33.5464 19.3589 32.6494 19.3589 31.5469C19.3589 31.465 19.3443 31.3871 19.3347 31.3077L30.6359 25.6506C30.9959 25.9983 31.4836 26.2148 32.0225 26.2148C33.1251 26.2148 34.022 25.3179 34.022 24.2153C34.022 23.3476 33.4631 22.6146 32.689 22.3386ZM32.0225 8.88573C32.3902 8.88573 32.689 9.18448 32.689 9.55223C32.689 9.91998 32.3902 10.2187 32.0225 10.2187C31.6547 10.2187 31.356 9.91998 31.356 9.55223C31.356 9.18448 31.6547 8.88573 32.0225 8.88573ZM2.69629 10.2187C2.32854 10.2187 2.02979 9.91998 2.02979 9.55223C2.02979 9.18448 2.32854 8.88573 2.69629 8.88573C3.06404 8.88573 3.36279 9.18448 3.36279 9.55223C3.36279 9.91998 3.06404 10.2187 2.69629 10.2187ZM17.3594 2.88719C16.9916 2.88719 16.6929 2.58844 16.6929 2.22069C16.6929 1.85294 16.9916 1.55419 17.3594 1.55419C17.7271 1.55419 18.0259 1.85294 18.0259 2.22069C18.0259 2.58844 17.7271 2.88719 17.3594 2.88719ZM2.69629 24.8818C2.32854 24.8818 2.02979 24.5831 2.02979 24.2153C2.02979 23.8476 2.32854 23.5488 2.69629 23.5488C3.06404 23.5488 3.36279 23.8476 3.36279 24.2153C3.36279 24.5831 3.06404 24.8818 2.69629 24.8818ZM17.3594 32.2134C16.9916 32.2134 16.6929 31.9146 16.6929 31.5469C16.6929 31.1791 16.9916 30.8804 17.3594 30.8804C17.7271 30.8804 18.0259 31.1791 18.0259 31.5469C18.0259 31.9146 17.7271 32.2134 17.3594 32.2134ZM32.0225 24.8818C31.6547 24.8818 31.356 24.5831 31.356 24.2153C31.356 23.8476 31.6547 23.5488 32.0225 23.5488C32.3902 23.5488 32.689 23.8476 32.689 24.2153C32.689 24.5831 32.3902 24.8818 32.0225 24.8818Z" fill="#24489A"/>
<path d="M27.3569 14.2178C28.4567 14.2178 29.3564 13.318 29.3564 12.2183C29.3564 11.1186 28.4567 10.2188 27.3569 10.2188C26.2572 10.2188 25.3574 11.1185 25.3574 12.2183C25.3574 12.7181 25.5441 13.1647 25.8506 13.518L25.0442 14.9176C24.9309 14.8976 24.8109 14.8843 24.6909 14.8843C23.8245 14.8843 23.0913 15.4441 22.8114 16.2173H20.6919V10.2188H21.3584C21.725 10.2188 22.0249 9.91882 22.0249 9.55225V6.88623C22.0249 6.51966 21.725 6.21973 21.3584 6.21973H13.3604C12.9938 6.21973 12.6938 6.51966 12.6938 6.88623V9.55225C12.6938 9.91882 12.9938 10.2188 13.3604 10.2188H14.0269V16.2173H11.9074C11.6275 15.4441 10.8943 14.8843 10.0278 14.8843C9.90787 14.8843 9.7879 14.8976 9.67457 14.9176L8.86812 13.518C9.17469 13.1647 9.36133 12.7181 9.36133 12.2183C9.36133 11.1185 8.46156 10.2188 7.36182 10.2188C6.26207 10.2188 5.3623 11.1185 5.3623 12.2183C5.3623 13.318 6.26207 14.2178 7.36182 14.2178C7.48178 14.2178 7.60175 14.2044 7.71508 14.1845L8.52153 15.5841C8.21496 15.9373 8.02832 16.3839 8.02832 16.8838C8.02832 17.497 8.30824 18.0368 8.74816 18.4034L8.06164 20.223C8.05497 20.223 8.04166 20.2163 8.02832 20.2163C6.92858 20.2163 6.02881 21.1161 6.02881 22.2158C6.02881 23.3156 6.92858 24.2153 8.02832 24.2153C9.12807 24.2153 10.0278 23.3155 10.0278 22.2158C10.0278 21.6026 9.74791 21.0627 9.30799 20.6962L9.99451 18.8766C10.0012 18.8766 10.0145 18.8833 10.0278 18.8833C10.8943 18.8833 11.6275 18.3234 11.9074 17.5503H14.0269V24.2153C14.0269 26.0549 15.5198 27.5479 17.3594 27.5479C19.1989 27.5479 20.6919 26.0549 20.6919 24.2153V21.5493C20.6919 21.1827 20.392 20.8828 20.0254 20.8828C19.6588 20.8828 19.3589 21.1827 19.3589 21.5493V24.2153C19.3589 25.315 18.4591 26.2148 17.3594 26.2148C16.2596 26.2148 15.3599 25.315 15.3599 24.2153V14.2178H19.3589V18.8833C19.3589 19.2499 19.6588 19.5498 20.0254 19.5498C20.392 19.5498 20.6919 19.2499 20.6919 18.8833V17.5503H22.8114C23.0913 18.3234 23.8245 18.8833 24.6909 18.8833C24.7043 18.8833 24.7176 18.8766 24.7242 18.8766L25.4108 20.6962C24.9708 21.0627 24.6909 21.6026 24.6909 22.2158C24.6909 23.3155 25.5907 24.2153 26.6904 24.2153C27.7902 24.2153 28.6899 23.3155 28.6899 22.2158C28.6899 21.1161 27.7902 20.2163 26.6904 20.2163C26.6771 20.2163 26.6638 20.223 26.6571 20.223L25.9706 18.4034C26.4105 18.0368 26.6904 17.497 26.6904 16.8838C26.6904 16.3839 26.5038 15.9373 26.1972 15.5841L27.0037 14.1845C27.117 14.2044 27.237 14.2178 27.3569 14.2178ZM7.36182 12.8848C6.99525 12.8848 6.69531 12.5848 6.69531 12.2183C6.69531 11.8517 6.99525 11.5518 7.36182 11.5518C7.72839 11.5518 8.02832 11.8517 8.02832 12.2183C8.02832 12.5848 7.72839 12.8848 7.36182 12.8848ZM8.02832 22.8823C7.66175 22.8823 7.36182 22.5824 7.36182 22.2158C7.36182 21.8492 7.66175 21.5493 8.02832 21.5493C8.39489 21.5493 8.69482 21.8492 8.69482 22.2158C8.69482 22.5824 8.39489 22.8823 8.02832 22.8823ZM10.0278 17.5503C9.66126 17.5503 9.36133 17.2504 9.36133 16.8838C9.36133 16.5172 9.66126 16.2173 10.0278 16.2173C10.3944 16.2173 10.6943 16.5172 10.6943 16.8838C10.6943 17.2504 10.3944 17.5503 10.0278 17.5503ZM19.3589 12.8848H15.3599V10.2188H19.3589V12.8848ZM14.0269 8.88574V7.55273H20.6919V8.88574H14.0269ZM24.6909 17.5503C24.3243 17.5503 24.0244 17.2504 24.0244 16.8838C24.0244 16.5172 24.3243 16.2173 24.6909 16.2173C25.0575 16.2173 25.3574 16.5172 25.3574 16.8838C25.3574 17.2504 25.0575 17.5503 24.6909 17.5503ZM26.6904 21.5493C27.057 21.5493 27.3569 21.8492 27.3569 22.2158C27.3569 22.5824 27.057 22.8823 26.6904 22.8823C26.3239 22.8823 26.0239 22.5824 26.0239 22.2158C26.0239 21.8492 26.3239 21.5493 26.6904 21.5493ZM26.6904 12.2183C26.6904 11.8517 26.9904 11.5518 27.3569 11.5518C27.7235 11.5518 28.0234 11.8517 28.0234 12.2183C28.0234 12.5848 27.7235 12.8848 27.3569 12.8848C26.9904 12.8848 26.6904 12.5848 26.6904 12.2183Z" fill="#24489A"/>
</svg>
