<svg width="22" height="25" viewBox="0 0 22 25" fill="none" xmlns="http://www.w3.org/2000/svg">
<rect width="21.9952" height="24.0926" rx="8" fill="#E6E6E6"/>
<path d="M11.0662 8.00063C10.7357 7.91762 4.43435 16.0826 10.9142 16.0926C17.7568 16.1032 11.0662 8.00063 11.0662 8.00063Z" fill="black"/>
<path d="M10.9908 15.3956C10.9954 15.43 11.0048 15.4623 11.022 15.4911C11.1841 15.7625 11.8603 15.6571 12.5325 15.2554C13.2048 14.8537 13.6184 14.3079 13.4562 14.0365C13.4421 14.013 13.423 13.9934 13.4015 13.9754C13.3976 13.983 13.3948 13.9903 13.3907 13.9979C13.3743 14.0282 13.3559 14.059 13.3355 14.0902C13.315 14.1214 13.2927 14.1529 13.2685 14.1848C13.2442 14.2167 13.2179 14.2489 13.1899 14.2813C13.1619 14.3137 13.1321 14.3466 13.1006 14.3792C13.0691 14.4119 13.0361 14.4445 13.0013 14.4771C12.9665 14.5098 12.9299 14.5423 12.892 14.5748C12.854 14.6072 12.8143 14.6397 12.7734 14.6717C12.7324 14.7036 12.69 14.7352 12.6463 14.7664C12.6026 14.7977 12.5575 14.8284 12.5112 14.8588C12.4649 14.8891 12.4175 14.9188 12.3687 14.948C12.3199 14.9771 12.2709 15.005 12.2222 15.0314C12.1736 15.0579 12.1251 15.083 12.0769 15.1067C12.0286 15.1304 11.9808 15.1528 11.9332 15.1737C11.8857 15.1946 11.8387 15.2139 11.7921 15.232C11.7456 15.2501 11.6996 15.2668 11.6543 15.282C11.6091 15.2972 11.5644 15.311 11.5207 15.3233C11.477 15.3355 11.4339 15.3463 11.3921 15.3555C11.3503 15.3648 11.31 15.3725 11.2703 15.3788C11.2307 15.385 11.192 15.39 11.1548 15.3932C11.1177 15.3964 11.0819 15.398 11.0475 15.3981C11.0277 15.3981 11.0095 15.3966 10.9908 15.3956Z" fill="#102044" stroke="black" stroke-width="0.00262376"/>
</svg>
