<svg width="22" height="25" viewBox="0 0 22 25" fill="none" xmlns="http://www.w3.org/2000/svg">
<rect y="0.453674" width="21.9952" height="24.0926" rx="8" fill="#416DD2"/>
<path d="M11.0662 8.4543C10.7357 8.37129 4.43435 16.5362 10.9142 16.5463C17.7568 16.5569 11.0662 8.4543 11.0662 8.4543Z" fill="white"/>
<path d="M10.991 15.8492C10.9956 15.8837 11.0049 15.916 11.0221 15.9448C11.1843 16.2162 11.8605 16.1107 12.5327 15.709C13.2049 15.3073 13.6185 14.7616 13.4564 14.4902C13.4423 14.4667 13.4232 14.447 13.4017 14.4291C13.3978 14.4367 13.395 14.444 13.3908 14.4516C13.3745 14.4819 13.3561 14.5126 13.3356 14.5439C13.3152 14.5751 13.2929 14.6065 13.2686 14.6385C13.2443 14.6704 13.218 14.7026 13.1901 14.735C13.1621 14.7674 13.1322 14.8002 13.1007 14.8329C13.0693 14.8656 13.0363 14.8981 13.0015 14.9308C12.9667 14.9635 12.9301 14.996 12.8922 15.0284C12.8542 15.0609 12.8145 15.0934 12.7736 15.1253C12.7326 15.1573 12.6902 15.1888 12.6465 15.2201C12.6028 15.2513 12.5577 15.2821 12.5114 15.3124C12.465 15.3427 12.4177 15.3725 12.3689 15.4017C12.3201 15.4308 12.271 15.4587 12.2224 15.4851C12.1737 15.5116 12.1253 15.5367 12.0771 15.5604C12.0288 15.5841 11.981 15.6064 11.9334 15.6274C11.8859 15.6483 11.8388 15.6676 11.7923 15.6857C11.7457 15.7037 11.6998 15.7205 11.6545 15.7357C11.6093 15.7509 11.5645 15.7647 11.5209 15.777C11.4772 15.7892 11.4341 15.7999 11.3923 15.8092C11.3505 15.8185 11.3101 15.8262 11.2705 15.8324C11.2309 15.8387 11.1922 15.8437 11.155 15.8469C11.1179 15.8501 11.082 15.8517 11.0476 15.8518C11.0279 15.8518 11.0097 15.8502 10.991 15.8492Z" fill="#102044" stroke="white" stroke-width="0.00262376"/>
</svg>
