<svg width="28" height="34" viewBox="0 0 28 34" fill="none" xmlns="http://www.w3.org/2000/svg">
<path d="M26.0163 6.98325L19.4579 4.39721C17.4318 3.59744 15.2923 3.09756 13.0928 2.90425C12.7329 2.86426 12.4063 3.14423 12.373 3.51079C12.3463 3.87736 12.6129 4.20394 12.9862 4.23726C15.0523 4.41056 17.0652 4.88379 18.9647 5.63694L25.5231 8.22298C26.2096 8.49623 26.5429 9.26938 26.2763 9.95584C26.0148 10.629 25.2175 10.9612 24.55 10.7024L21.5041 9.50265C21.4974 9.50265 21.4908 9.49598 21.4841 9.49598L18.0649 8.14963C17.5851 7.17656 16.552 6.55005 15.4323 6.65L11.3532 7.00994C10.9866 7.04325 10.7134 7.36983 10.7467 7.7364C10.78 8.10301 11.1066 8.37626 11.4732 8.33627L15.5456 7.97637C16.2521 7.92304 16.8852 8.40957 16.9985 9.10276C17.1185 9.83591 16.6253 10.5357 15.8922 10.6557L10.94 11.4821C10.5801 11.5422 10.2135 11.5022 9.88027 11.3689L5.60796 9.68262L7.66748 4.45721C8.54727 4.3106 9.46705 4.20394 10.4001 4.17062C10.7667 4.15728 11.0533 3.84404 11.04 3.47747C11.0266 3.11086 10.7134 2.81097 10.3468 2.83761C9.60699 2.86426 8.88052 2.94423 8.16069 3.03756C8.21402 2.67099 8.17403 2.29775 8.02071 1.95782C7.80746 1.46462 7.42088 1.0847 6.921 0.891429L5.68131 0.404854C4.65487 -0.00170627 3.48849 0.504843 3.08861 1.53125L0.155975 8.96945C-0.0372977 9.46933 -0.030626 10.0092 0.182662 10.5024C0.39595 10.9889 0.78916 11.3688 1.28237 11.5621L2.52206 12.0554C2.76203 12.1486 3.00863 12.1953 3.25524 12.1953C3.52848 12.1953 3.79511 12.1353 4.05505 12.0287C4.54158 11.8154 4.9215 11.4222 5.11477 10.929L9.38708 12.6085C9.75365 12.7552 10.1402 12.8218 10.5334 12.8352C10.2002 13.6816 10.0136 14.5814 10.0136 15.5079C10.0136 15.8744 10.3135 16.1744 10.6801 16.1744H13.3461C13.7127 16.1744 14.0126 15.8744 14.0126 15.5079C14.0126 13.6683 15.5056 12.1753 17.3451 12.1753C19.1847 12.1753 20.6777 13.6683 20.6777 15.5079V29.5044H20.0112C19.7045 29.5044 19.4379 29.7111 19.3646 30.011L18.6981 32.677C18.6515 32.8769 18.6915 33.0836 18.8181 33.2502C18.9447 33.4101 19.138 33.5035 19.3447 33.5035H26.0097C26.2163 33.5035 26.4096 33.4101 26.5362 33.2502C26.6629 33.0836 26.7028 32.8769 26.6562 32.677L25.9897 30.011C25.9164 29.7111 25.6497 29.5044 25.3432 29.5044H24.6767V24.1724C24.6767 23.8058 24.3767 23.5059 24.0102 23.5059C23.6436 23.5059 23.3437 23.8058 23.3437 24.1724V29.5044H22.0107V15.5079C22.0107 13.1084 20.1911 11.1289 17.8583 10.869C18.1049 10.5224 18.2582 10.1158 18.3115 9.67595L20.9243 10.709C22.4372 11.8421 23.3437 13.6283 23.3437 15.5079V21.5064C23.3437 21.873 23.6436 22.1729 24.0102 22.1729C24.3767 22.1729 24.6767 21.873 24.6767 21.5064V15.5079C24.6767 14.1815 24.2968 12.8951 23.6303 11.7754L24.0635 11.942C24.3767 12.062 24.7033 12.1287 25.0299 12.1287C26.1073 12.1287 27.126 11.4484 27.5159 10.4424C28.0559 9.07608 27.3827 7.52312 26.0163 6.98325ZM3.87507 10.4358C3.80843 10.6024 3.68179 10.7357 3.5218 10.8023C3.36185 10.8757 3.17524 10.8757 3.01529 10.8156L1.76893 10.3224C1.6023 10.2558 1.47567 10.1358 1.40232 9.96921C1.33568 9.80926 1.32901 9.62262 1.39569 9.45599L4.32828 2.01783C4.42823 1.75796 4.68138 1.59803 4.94786 1.59793C5.41907 1.59774 5.99969 1.9605 6.43446 2.13113C6.60108 2.19776 6.72772 2.3244 6.80103 2.48435C6.86766 2.65098 6.87433 2.83095 6.8077 2.99757L3.87507 10.4358ZM12.7263 14.8414H11.3799C11.4666 14.0615 11.7132 13.3217 12.0864 12.6419L13.9326 12.3353C13.2994 13.0151 12.8662 13.8816 12.7263 14.8414ZM24.8233 30.8374L25.1565 32.1705H20.1977L20.531 30.8374H24.8233Z" fill="#24489A"/>
<path d="M19.3447 19.8876C19.3447 19.5901 19.1475 19.3285 18.8611 19.2465L12.8626 17.5327C12.7428 17.4989 12.6166 17.4989 12.4968 17.5327L6.49826 19.2465C6.21187 19.3285 6.01465 19.5901 6.01465 19.8876V22.2184C6.01465 26.1875 8.68001 29.7211 12.4968 30.812C12.5567 30.8289 12.6179 30.8374 12.6797 30.8374C12.7415 30.8374 12.8027 30.8289 12.8626 30.812C16.6794 29.7211 19.3447 26.1875 19.3447 22.2184L19.3447 19.8876ZM18.0117 22.2184C18.0117 25.5314 15.8287 28.4884 12.6797 29.4751C9.53072 28.4884 7.34766 25.5314 7.34766 22.2184V20.3901L12.6797 18.867L18.0117 20.3901V22.2184Z" fill="#24489A"/>
<path d="M12.0132 20.8398V21.5223C11.266 21.6022 10.6802 22.2288 10.6802 22.9969C10.6802 23.5644 10.9959 24.0747 11.5042 24.3299L13.2583 25.2066C13.3123 25.234 13.3462 25.288 13.3462 25.3479C13.3462 25.4344 13.2752 25.5054 13.1887 25.5054H11.3467C10.9783 25.5054 10.6802 25.8035 10.6802 26.1719C10.6802 26.5403 10.9783 26.8384 11.3467 26.8384H12.0132V27.5049C12.0132 27.8733 12.3113 28.1714 12.6797 28.1714C13.0481 28.1714 13.3462 27.8733 13.3462 27.5049V26.8224C14.0934 26.7425 14.6792 26.116 14.6792 25.3479C14.6792 24.7803 14.3635 24.27 13.8552 24.0148L12.1011 23.1381C12.047 23.1108 12.0132 23.0568 12.0132 22.9969C12.0132 22.9103 12.0841 22.8394 12.1707 22.8394H14.0127C14.3811 22.8394 14.6792 22.5412 14.6792 22.1729C14.6792 21.8045 14.3811 21.5063 14.0127 21.5063H13.3462V20.8398C13.3462 20.4714 13.0481 20.1733 12.6797 20.1733C12.3113 20.1733 12.0132 20.4714 12.0132 20.8398Z" fill="#24489A"/>
</svg>
