<svg width="175" height="39" viewBox="0 0 175 39" fill="none" xmlns="http://www.w3.org/2000/svg">
<path d="M0.76 29V0.999998H10.12C13.3733 0.999998 16.0533 1.58667 18.16 2.76C20.2933 3.90667 21.8667 5.53333 22.88 7.64C23.92 9.72 24.44 12.1733 24.44 15C24.44 17.8267 23.92 20.2933 22.88 22.4C21.8667 24.48 20.3067 26.1067 18.2 27.28C16.0933 28.4267 13.4 29 10.12 29H0.76ZM6.16 24.36H9.84C12.1333 24.36 13.9333 23.9867 15.24 23.24C16.5733 22.4933 17.52 21.4267 18.08 20.04C18.64 18.6267 18.92 16.9467 18.92 15C18.92 13.0267 18.64 11.3467 18.08 9.96C17.52 8.54667 16.5733 7.46666 15.24 6.72C13.9333 5.97333 12.1333 5.6 9.84 5.6H6.16V24.36ZM29.0413 29V8.84H34.4413V29H29.0413ZM31.7613 6.08C30.8013 6.08 30.0013 5.8 29.3613 5.24C28.7479 4.65333 28.4413 3.92 28.4413 3.04C28.4413 2.16 28.7479 1.44 29.3613 0.88C30.0013 0.293333 30.8013 -9.53674e-07 31.7613 -9.53674e-07C32.7479 -9.53674e-07 33.5479 0.293333 34.1613 0.88C34.8013 1.44 35.1213 2.16 35.1213 3.04C35.1213 3.92 34.8013 4.65333 34.1613 5.24C33.5479 5.8 32.7479 6.08 31.7613 6.08ZM48.5778 38.28C46.6578 38.28 44.9778 38.04 43.5378 37.56C42.0978 37.1067 40.9778 36.4 40.1778 35.44C39.4045 34.5067 39.0178 33.3467 39.0178 31.96C39.0178 31.0267 39.2578 30.1467 39.7378 29.32C40.2178 28.4933 40.9111 27.7467 41.8178 27.08C42.7511 26.3867 43.9111 25.8 45.2978 25.32L47.3378 27.96C46.1111 28.36 45.2178 28.8533 44.6578 29.44C44.1245 30.0533 43.8578 30.7067 43.8578 31.4C43.8578 32.0133 44.0578 32.5333 44.4578 32.96C44.8845 33.3867 45.4445 33.6933 46.1378 33.88C46.8578 34.0933 47.6578 34.2 48.5378 34.2C49.3911 34.2 50.1245 34.0933 50.7378 33.88C51.3778 33.6667 51.8711 33.3467 52.2178 32.92C52.5911 32.52 52.7778 32.04 52.7778 31.48C52.7778 30.76 52.5245 30.1733 52.0178 29.72C51.5111 29.2667 50.4978 28.9867 48.9778 28.88C47.6178 28.7733 46.4045 28.6267 45.3378 28.44C44.2978 28.2267 43.3778 27.9867 42.5778 27.72C41.7778 27.4267 41.0978 27.1067 40.5378 26.76C40.0045 26.4133 39.5645 26.0667 39.2178 25.72V24.8L43.4978 20.2L47.3778 21.44L42.3378 26.4L43.8578 23.76C44.1511 23.92 44.4311 24.08 44.6978 24.24C44.9911 24.3733 45.3511 24.5067 45.7778 24.64C46.2045 24.7467 46.7645 24.8533 47.4578 24.96C48.1511 25.0667 49.0311 25.16 50.0978 25.24C51.8578 25.4 53.2978 25.7333 54.4178 26.24C55.5645 26.7467 56.4045 27.4267 56.9378 28.28C57.4711 29.1067 57.7378 30.1333 57.7378 31.36C57.7378 32.56 57.4045 33.68 56.7378 34.72C56.0978 35.7867 55.0978 36.64 53.7378 37.28C52.3778 37.9467 50.6578 38.28 48.5778 38.28ZM48.5778 23.04C46.8978 23.04 45.4445 22.72 44.2178 22.08C43.0178 21.4133 42.0845 20.5333 41.4178 19.44C40.7778 18.32 40.4578 17.08 40.4578 15.72C40.4578 14.36 40.7778 13.1333 41.4178 12.04C42.0845 10.92 43.0178 10.0267 44.2178 9.36C45.4445 8.69333 46.8978 8.36 48.5778 8.36C50.2845 8.36 51.7378 8.69333 52.9378 9.36C54.1645 10.0267 55.0978 10.92 55.7378 12.04C56.3778 13.1333 56.6978 14.36 56.6978 15.72C56.6978 17.08 56.3778 18.32 55.7378 19.44C55.0978 20.5333 54.1645 21.4133 52.9378 22.08C51.7378 22.72 50.2845 23.04 48.5778 23.04ZM48.5778 18.92C49.6178 18.92 50.4578 18.6533 51.0978 18.12C51.7378 17.5867 52.0578 16.8 52.0578 15.76C52.0578 14.72 51.7378 13.9333 51.0978 13.4C50.4578 12.84 49.6178 12.56 48.5778 12.56C47.5645 12.56 46.7245 12.84 46.0578 13.4C45.4178 13.9333 45.0978 14.72 45.0978 15.76C45.0978 16.8 45.4178 17.5867 46.0578 18.12C46.7245 18.6533 47.5645 18.92 48.5778 18.92ZM51.9378 12.68L51.0578 8.84H59.3378V12.04L51.9378 12.68ZM63.8459 29V8.84H69.2459V29H63.8459ZM66.5659 6.08C65.6059 6.08 64.8059 5.8 64.1659 5.24C63.5526 4.65333 63.2459 3.92 63.2459 3.04C63.2459 2.16 63.5526 1.44 64.1659 0.88C64.8059 0.293333 65.6059 -9.53674e-07 66.5659 -9.53674e-07C67.5526 -9.53674e-07 68.3526 0.293333 68.9659 0.88C69.6059 1.44 69.9259 2.16 69.9259 3.04C69.9259 3.92 69.6059 4.65333 68.9659 5.24C68.3526 5.8 67.5526 6.08 66.5659 6.08ZM87.3825 29.48C84.5825 29.48 82.1692 28.88 80.1425 27.68C78.1425 26.4533 76.5958 24.76 75.5025 22.6C74.4358 20.4133 73.9025 17.8933 73.9025 15.04C73.9025 12.1867 74.4358 9.66667 75.5025 7.48C76.5958 5.29333 78.1425 3.58667 80.1425 2.36C82.1692 1.13333 84.5825 0.52 87.3825 0.52C90.7692 0.52 93.5425 1.36 95.7025 3.04C97.8625 4.72 99.2092 7.09333 99.7425 10.16H93.8625C93.5158 8.66667 92.7825 7.50667 91.6625 6.68C90.5692 5.82667 89.1292 5.4 87.3425 5.4C85.6892 5.4 84.2625 5.8 83.0625 6.6C81.8892 7.37333 80.9825 8.48 80.3425 9.92C79.7025 11.3333 79.3825 13.04 79.3825 15.04C79.3825 17.0133 79.7025 18.72 80.3425 20.16C80.9825 21.6 81.8892 22.7067 83.0625 23.48C84.2625 24.2533 85.6892 24.64 87.3425 24.64C89.1292 24.64 90.5692 24.2533 91.6625 23.48C92.7558 22.68 93.4758 21.5733 93.8225 20.16H99.7425C99.2092 23.0667 97.8625 25.3467 95.7025 27C93.5425 28.6533 90.7692 29.48 87.3825 29.48ZM113.754 29.48C111.834 29.48 110.1 29.04 108.554 28.16C107.034 27.2533 105.82 26.0133 104.914 24.44C104.034 22.84 103.594 21.0133 103.594 18.96C103.594 16.8533 104.034 15.0133 104.914 13.44C105.82 11.84 107.047 10.6 108.594 9.72C110.14 8.81333 111.874 8.36 113.794 8.36C115.74 8.36 117.474 8.81333 118.994 9.72C120.54 10.6 121.754 11.84 122.634 13.44C123.54 15.0133 123.994 16.84 123.994 18.92C123.994 21 123.54 22.84 122.634 24.44C121.754 26.0133 120.54 27.2533 118.994 28.16C117.447 29.04 115.7 29.48 113.754 29.48ZM113.754 24.8C114.66 24.8 115.46 24.5867 116.154 24.16C116.874 23.7333 117.434 23.08 117.834 22.2C118.26 21.32 118.474 20.2267 118.474 18.92C118.474 17.6133 118.26 16.5333 117.834 15.68C117.434 14.8 116.874 14.1467 116.154 13.72C115.46 13.2667 114.674 13.04 113.794 13.04C112.94 13.04 112.154 13.2667 111.434 13.72C110.714 14.1467 110.14 14.8 109.714 15.68C109.314 16.5333 109.114 17.6133 109.114 18.92C109.114 20.2267 109.314 21.32 109.714 22.2C110.14 23.08 110.7 23.7333 111.394 24.16C112.114 24.5867 112.9 24.8 113.754 24.8ZM138.168 29.48C136.248 29.48 134.514 29.04 132.968 28.16C131.448 27.2533 130.234 26.0133 129.328 24.44C128.448 22.84 128.008 21.0133 128.008 18.96C128.008 16.8533 128.448 15.0133 129.328 13.44C130.234 11.84 131.461 10.6 133.008 9.72C134.554 8.81333 136.288 8.36 138.208 8.36C140.154 8.36 141.888 8.81333 143.408 9.72C144.954 10.6 146.168 11.84 147.048 13.44C147.954 15.0133 148.408 16.84 148.408 18.92C148.408 21 147.954 22.84 147.048 24.44C146.168 26.0133 144.954 27.2533 143.408 28.16C141.861 29.04 140.114 29.48 138.168 29.48ZM138.168 24.8C139.074 24.8 139.874 24.5867 140.568 24.16C141.288 23.7333 141.848 23.08 142.248 22.2C142.674 21.32 142.888 20.2267 142.888 18.92C142.888 17.6133 142.674 16.5333 142.248 15.68C141.848 14.8 141.288 14.1467 140.568 13.72C139.874 13.2667 139.088 13.04 138.208 13.04C137.354 13.04 136.568 13.2667 135.848 13.72C135.128 14.1467 134.554 14.8 134.128 15.68C133.728 16.5333 133.528 17.6133 133.528 18.92C133.528 20.2267 133.728 21.32 134.128 22.2C134.554 23.08 135.114 23.7333 135.808 24.16C136.528 24.5867 137.314 24.8 138.168 24.8ZM153.062 37.8V8.84H157.862L158.462 11.64C158.889 11.0533 159.395 10.52 159.982 10.04C160.569 9.53333 161.262 9.13333 162.062 8.84C162.889 8.52 163.849 8.36 164.942 8.36C166.835 8.36 168.502 8.82667 169.942 9.76C171.382 10.6933 172.515 11.96 173.342 13.56C174.195 15.1333 174.622 16.9333 174.622 18.96C174.622 20.9867 174.195 22.8 173.342 24.4C172.489 25.9733 171.342 27.2133 169.902 28.12C168.462 29.0267 166.822 29.48 164.982 29.48C163.489 29.48 162.195 29.2133 161.102 28.68C160.035 28.12 159.155 27.36 158.462 26.4V37.8H153.062ZM163.702 24.76C164.769 24.76 165.702 24.52 166.502 24.04C167.329 23.56 167.969 22.88 168.422 22C168.875 21.12 169.102 20.1067 169.102 18.96C169.102 17.8133 168.875 16.8 168.422 15.92C167.969 15.0133 167.329 14.32 166.502 13.84C165.702 13.3333 164.769 13.08 163.702 13.08C162.662 13.08 161.729 13.3333 160.902 13.84C160.102 14.32 159.462 15 158.982 15.88C158.529 16.76 158.302 17.7733 158.302 18.92C158.302 20.0667 158.529 21.0933 158.982 22C159.462 22.88 160.102 23.56 160.902 24.04C161.729 24.52 162.662 24.76 163.702 24.76Z" fill="#0F172A"/>
</svg>
